<mxfile host="Electron" modified="2024-02-27T05:29:55.799Z" agent="Mozilla/5.0 (Windows NT 10.0; Win64; x64) AppleWebKit/537.36 (KHTML, like Gecko) draw.io/22.1.16 Chrome/120.0.6099.109 Electron/28.1.0 Safari/537.36" etag="eC_e5DRLfAbdpVGXkjPh" version="22.1.16" type="device">
  <diagram name="第 1 页" id="9hvXNjHbzQdgaGkcdYJE">
    <mxGraphModel dx="1102" dy="613" grid="1" gridSize="10" guides="1" tooltips="1" connect="1" arrows="1" fold="1" page="1" pageScale="1" pageWidth="3300" pageHeight="4681" math="0" shadow="0">
      <root>
        <mxCell id="0" />
        <mxCell id="1" parent="0" />
        <mxCell id="RrNN1wanW8iVdMHNO-eD-19" value="" style="rounded=0;whiteSpace=wrap;html=1;fillStyle=auto;" vertex="1" parent="1">
          <mxGeometry x="170" y="200" width="700" height="120" as="geometry" />
        </mxCell>
        <mxCell id="RrNN1wanW8iVdMHNO-eD-2" value="&lt;font style=&quot;font-size: 13px;&quot;&gt;&lt;b&gt;The following is a Chinese sentence translated from English. Please reduce the noise in the Chinese sentence.&lt;/b&gt;&lt;/font&gt;" style="text;html=1;strokeColor=none;fillColor=none;align=center;verticalAlign=middle;whiteSpace=wrap;rounded=0;" vertex="1" parent="1">
          <mxGeometry x="170" y="200" width="700" height="30" as="geometry" />
        </mxCell>
        <mxCell id="RrNN1wanW8iVdMHNO-eD-3" value="以下是一个由英文翻译来的中文句子，请降低该中文句子中的噪声" style="text;whiteSpace=wrap;fontStyle=1;fontSize=13;" vertex="1" parent="1">
          <mxGeometry x="180" y="230" width="380" height="40" as="geometry" />
        </mxCell>
        <mxCell id="RrNN1wanW8iVdMHNO-eD-22" value="&lt;b&gt;&lt;font style=&quot;font-size: 13px;&quot;&gt;The task is a noise reduction task, the following is a Chinese sentence：&lt;/font&gt;&lt;/b&gt;" style="text;html=1;strokeColor=none;fillColor=none;align=center;verticalAlign=middle;whiteSpace=wrap;rounded=0;" vertex="1" parent="1">
          <mxGeometry x="171" y="260" width="462.5" height="30" as="geometry" />
        </mxCell>
        <mxCell id="RrNN1wanW8iVdMHNO-eD-24" value="&lt;b&gt;&lt;font style=&quot;font-size: 13px;&quot;&gt;任务是降噪任务，以下是一条中文句子：&lt;/font&gt;&lt;/b&gt;" style="text;html=1;strokeColor=none;fillColor=none;align=center;verticalAlign=middle;whiteSpace=wrap;rounded=0;" vertex="1" parent="1">
          <mxGeometry x="175" y="290" width="243" height="30" as="geometry" />
        </mxCell>
        <mxCell id="RrNN1wanW8iVdMHNO-eD-25" value="" style="endArrow=none;html=1;rounded=0;entryX=1;entryY=1;entryDx=0;entryDy=0;" edge="1" parent="1" target="RrNN1wanW8iVdMHNO-eD-2">
          <mxGeometry width="50" height="50" relative="1" as="geometry">
            <mxPoint x="170" y="230" as="sourcePoint" />
            <mxPoint x="220" y="180" as="targetPoint" />
          </mxGeometry>
        </mxCell>
        <mxCell id="RrNN1wanW8iVdMHNO-eD-28" value="" style="endArrow=none;html=1;rounded=0;entryX=1;entryY=0.5;entryDx=0;entryDy=0;" edge="1" parent="1" target="RrNN1wanW8iVdMHNO-eD-19">
          <mxGeometry width="50" height="50" relative="1" as="geometry">
            <mxPoint x="170" y="260" as="sourcePoint" />
            <mxPoint x="870" y="260" as="targetPoint" />
            <Array as="points">
              <mxPoint x="520" y="260" />
            </Array>
          </mxGeometry>
        </mxCell>
        <mxCell id="RrNN1wanW8iVdMHNO-eD-29" value="" style="endArrow=none;html=1;rounded=0;" edge="1" parent="1">
          <mxGeometry width="50" height="50" relative="1" as="geometry">
            <mxPoint x="170" y="290" as="sourcePoint" />
            <mxPoint x="870" y="290" as="targetPoint" />
          </mxGeometry>
        </mxCell>
      </root>
    </mxGraphModel>
  </diagram>
</mxfile>
